<?xml version="1.0" encoding="UTF-8" standalone="no"?>
<!-- Created with Inkscape (http://www.inkscape.org/) -->

<svg
   xmlns:dc="http://purl.org/dc/elements/1.1/"
   xmlns:cc="http://creativecommons.org/ns#"
   xmlns:rdf="http://www.w3.org/1999/02/22-rdf-syntax-ns#"
   xmlns:svg="http://www.w3.org/2000/svg"
   xmlns="http://www.w3.org/2000/svg"
   xmlns:sodipodi="http://sodipodi.sourceforge.net/DTD/sodipodi-0.dtd"
   xmlns:inkscape="http://www.inkscape.org/namespaces/inkscape"
   sodipodi:docname="distribution.svg"
   viewBox="0 0 297.55615 262.3704"
   height="262.37039"
   width="297.55615"
   xml:space="preserve"
   id="svg815"
   version="1.1"
   inkscape:version="0.92.3 (2405546, 2018-03-11)"><sodipodi:namedview
     fit-margin-bottom="0"
     fit-margin-right="0"
     fit-margin-left="0"
     fit-margin-top="0"
     inkscape:current-layer="g823"
     inkscape:cy="125.72559"
     inkscape:cx="142.35606"
     inkscape:zoom="1.7844137"
     showgrid="false"
     id="namedview817"
     inkscape:window-height="480"
     inkscape:window-width="640"
     inkscape:pageshadow="2"
     inkscape:pageopacity="0"
     guidetolerance="10"
     gridtolerance="10"
     objecttolerance="10"
     borderopacity="1"
     bordercolor="#666666"
     pagecolor="#ffffff" /><metadata
     id="metadata821"><rdf:RDF><cc:Work
         rdf:about=""><dc:format>image/svg+xml</dc:format><dc:type
           rdf:resource="http://purl.org/dc/dcmitype/StillImage" /><dc:title></dc:title></cc:Work></rdf:RDF></metadata><defs
     id="defs819"><clipPath
   clipPathUnits="userSpaceOnUse"
   id="clipPath885"><path
     d="M -27.7529,-164.78592 H 166.5196 V 280.06802 H -27.7529"
     id="path883"
     inkscape:connector-curvature="0" /></clipPath><clipPath
   clipPathUnits="userSpaceOnUse"
   id="clipPath897"><path
     d="M -169.4866,-23.05606 V 138.33815 H 308.25331 V -23.05606"
     id="path895"
     inkscape:connector-curvature="0" /></clipPath><clipPath
   clipPathUnits="userSpaceOnUse"
   id="clipPath1049"><path
     d="M -27.7529,-23.05606 H 166.5196 V 138.33815 H -27.7529 Z"
     id="path1047"
     inkscape:connector-curvature="0" /></clipPath>


























</defs><g
     id="g823"
     inkscape:groupmode="layer"
     inkscape:label="picture_test"
     transform="matrix(1.3333333,0,0,-1.3333333,-24.98363,269.24965)"><path
   inkscape:connector-curvature="0"
   id="path889"
   style="fill:none;stroke:#808080;stroke-width:0.19925;stroke-linecap:butt;stroke-linejoin:miter;stroke-miterlimit:10;stroke-dasharray:none;stroke-opacity:1"
   d="m 75.186,22.123613 v 4.548911 m 69.38335,-4.548911 v 4.548911 m 57.1981,-4.548911 v 4.548911 M 75.186,201.73799 v -4.45801 m 69.38335,4.45801 v -4.45801 m 69.38335,4.45801 v -4.45801"
   sodipodi:nodetypes="cccccccccccc" /><path
   inkscape:connector-curvature="0"
   id="path901"
   style="fill:none;stroke:#808080;stroke-width:0.19925;stroke-linecap:butt;stroke-linejoin:miter;stroke-miterlimit:10;stroke-dasharray:none;stroke-opacity:1"
   d="m 47.4331,52.45354 h 4.25182 M 47.4331,94.52727 h 4.25182 m -4.25182,42.07376 h 4.25182 m -4.25182,42.07376 h 4.25182 M 241.7056,52.45354 h -4.25182 m 4.25182,42.07373 h -4.25182 m 4.25182,42.07376 h -4.25182 m 4.25182,42.07376 h -4.25182" /><path
   d="M 47.4331,21.620102 V 201.73799 H 241.7056 V 21.620102 Z"
   style="fill:none;stroke:#000000;stroke-width:0.3985;stroke-linecap:butt;stroke-linejoin:miter;stroke-miterlimit:10;stroke-dasharray:none;stroke-opacity:1"
   id="path903"
   inkscape:connector-curvature="0"
   sodipodi:nodetypes="ccccc" /><path
   d="m 64.22695,52.45354 h 9.96277 v 64.79358 h -9.96277 z m 69.38335,0 h 9.96277 v 39.54932 h -9.96277 z m 69.38335,0 h 9.96277 v 27.76868 h -9.96277 z"
   style="fill:#ff9896;fill-opacity:1;fill-rule:nonzero;stroke:#000000;stroke-width:0.3985;stroke-linecap:butt;stroke-linejoin:miter;stroke-miterlimit:10;stroke-dasharray:none;stroke-opacity:1"
   id="path1057"
   inkscape:connector-curvature="0" /><path
   d="m 88.1376,52.45354 h 9.96277 v 9.25623 H 88.1376 Z m 69.38335,0 h 9.96277 v 17.67097 h -9.96277 z"
   style="fill:#808080;fill-opacity:1;fill-rule:nonzero;stroke:#000000;stroke-width:0.3985;stroke-linecap:butt;stroke-linejoin:miter;stroke-miterlimit:10;stroke-dasharray:none;stroke-opacity:1"
   id="path1065"
   inkscape:connector-curvature="0" />
<path
   style="fill:none;stroke:#000000;stroke-width:0.75px;stroke-linecap:butt;stroke-linejoin:miter;stroke-opacity:1"
   d="M 52.100822,17.768623 H 97.914193"
   id="path5038"
   inkscape:connector-curvature="0" /><path
   inkscape:connector-curvature="0"
   id="path5040"
   d="m 121.55972,17.768623 h 45.81337"
   style="fill:none;stroke:#000000;stroke-width:0.75px;stroke-linecap:butt;stroke-linejoin:miter;stroke-opacity:1" /><path
   style="fill:none;stroke:#000000;stroke-width:0.75px;stroke-linecap:butt;stroke-linejoin:miter;stroke-opacity:1"
   d="m 178.79841,17.768623 h 45.81337"
   id="path5042"
   inkscape:connector-curvature="0" /><path
   inkscape:connector-curvature="0"
   id="path1053"
   style="fill:#bfffb8;fill-opacity:1;fill-rule:nonzero;stroke:#000000;stroke-width:0.375;stroke-linecap:butt;stroke-linejoin:miter;stroke-miterlimit:10;stroke-dasharray:none;stroke-opacity:1"
   d="M 52.27163,52.45354 H 62.2344 V 53.295 h -9.96277 z m 69.38335,0 h 9.96277 v 39.54932 h -9.96277 z m 69.38335,0 h 9.96277 v 116.12355 h -9.96277 z" /><path
   id="path5460"
   style="fill:none;stroke:#000000;stroke-width:0.375;stroke-miterlimit:10;stroke-dasharray:none;stroke-opacity:1"
   d="m 201.0011,55.69643 -3.24289,-3.24289 m -4.24264,0 7.48553,7.485531 m 0,4.24264 -9.96277,-9.96277 m 0,4.242641 9.96277,9.96277 m 0,4.242641 -9.96277,-9.96277 m 0,4.24264 9.96277,9.96277 m 0,4.242641 -9.96277,-9.96277 m 0,4.242641 9.96277,9.96277 m 0,4.24264 -9.96277,-9.96277 m 0,4.242641 9.96277,9.96277 m 0,4.242641 -9.96277,-9.96277 m 0,4.242641 9.96277,9.962772 m 0,4.24264 -9.96277,-9.962772 m 0,4.242642 9.96277,9.96277 m 0,4.24264 -9.96277,-9.96277 m 0,4.24264 9.96277,9.96277 m 0,4.24264 -9.96277,-9.96277 m -61.16237,-61.16237 1.74179,1.741791 m 69.38335,73.625989 -9.96277,-9.96277 m -65.40501,-65.40501 5.98443,5.984432 m 69.38335,73.625988 -9.96277,-9.96277 m -69.38335,-69.383348 9.96277,9.96277 m 69.38335,73.625988 -9.96277,-9.96277 m -69.38335,-69.383347 9.96277,9.96277 m 69.38335,73.625987 -9.96277,-9.96277 m -69.38335,-69.383346 9.96277,9.96277 m 69.38335,73.625986 -9.96277,-9.96277 m -69.38335,-69.383346 9.96277,9.96277 m 69.38335,73.625986 -9.96277,-9.96277 m -69.38335,-69.383345 9.96277,9.96277 m 69.38335,73.625995 -9.96277,-9.96277 m -69.38335,-69.383354 9.96277,9.96277 m 69.38335,73.625994 -9.96277,-9.96277 m -69.38335,-69.383354 9.96277,9.96277 m 69.38335,73.625994 -9.96277,-9.96277 m -69.38335,-69.383353 9.58653,9.586533 m 69.75959,74.00223 -9.96277,-9.96277 m -69.38335,-69.383352 5.34389,5.343892 m 72.33159,76.57423 -8.29213,-8.29213 m -69.38335,-69.383352 1.10125,1.101252 m 72.33159,76.57423 -4.04949,-4.04949 M 61.993708,52.45354 62.2344,52.694232 M 58.592527,53.295 57.751067,52.45354 m -4.24264,0 0.84146,0.84146"
   inkscape:connector-curvature="0" />



























<path
   inkscape:connector-curvature="0"
   id="path1061"
   style="fill:#ecd9c6;fill-opacity:1;fill-rule:nonzero;stroke:#130505;stroke-width:0.39975002;stroke-linecap:butt;stroke-linejoin:miter;stroke-miterlimit:4;stroke-dasharray:none;stroke-opacity:1"
   d="m 76.18228,52.45354 h 9.96277 v 53.8544 h -9.96277 z m 69.38334,0 h 9.96277 v 42.91522 h -9.96277 z" /><path
   inkscape:connector-curvature="0"
   d="m 155.52839,55.487507 -3.03397,-3.033967 m -4.24264,0 7.27661,7.276608 m 0,4.242641 -9.96277,-9.96277 m 0,4.24264 9.96277,9.96277 m 0,4.242641 -9.96277,-9.96277 m 0,4.242641 9.96277,9.96277 m 0,4.24264 -9.96277,-9.96277 m 0,4.242641 9.96277,9.96277 m 0,4.242641 -9.96277,-9.96277 m 0,4.24264 9.96277,9.96277 m -2.54515,1.697487 -7.41762,-7.417616 m 0,4.242641 3.17497,3.174975 M 86.14505,53.986418 84.612172,52.45354 m -4.242641,0 5.775519,5.775519 m 0,4.242641 -9.96277,-9.96277 m 0,4.24264 9.96277,9.96277 m 0,4.242641 -9.96277,-9.96277 m 0,4.242641 9.96277,9.96277 m 0,4.24264 -9.96277,-9.96277 m 0,4.242641 9.96277,9.96277 m 0,4.242641 -9.96277,-9.96277 m 0,4.24264 9.96277,9.96277 m 0,4.242641 -9.96277,-9.96277 m 0,4.242641 9.96277,9.962774 m 0,4.24264 -9.96277,-9.962774 m 0,4.242641 7.129963,7.129963 m -4.242641,0 -2.887322,-2.88732 m 0,-47.933113 3.033967,-3.033967 m 4.242641,0 -7.276608,7.276608 m 0,4.242641 9.96277,-9.96277 m 0,4.24264 -9.96277,9.96277 m 0,4.242641 9.96277,-9.96277 m 0,4.242641 -9.96277,9.96277 m 0,4.24264 9.96277,-9.96277 m 0,4.242641 -9.96277,9.96277 m 0,4.242641 9.96277,-9.96277 m 0,4.24264 -9.96277,9.96277 m 0,4.242641 9.96277,-9.96277 m 0,4.242641 -9.96277,9.962775 m 0.09125,4.15138 9.871515,-9.871515 m 0,4.242645 -5.628874,5.62887 m 4.242641,0 1.386233,-1.38623 m 60.953455,-52.46817 -1.53289,1.532878 m 0,4.242641 5.77552,-5.775519 m 4.18726,0.05539 -9.96278,9.96277 m 0,4.24264 9.96278,-9.96277 m 0,4.242641 -9.96278,9.96277 m 0,4.242641 9.96278,-9.96277 m 0,4.24264 -9.96278,9.96277 m 0,4.242641 9.96278,-9.96277 m 0,4.242641 -9.96278,9.96277 m 0,4.24264 9.96278,-9.96277 m 0,4.242641 -8.9187,8.918705 m 4.24263,0 4.67607,-4.676064 m 0,4.24264 -0.43343,0.433424"
   style="fill:none;stroke:#130505;stroke-width:0.39975002;stroke-miterlimit:4;stroke-dasharray:none;stroke-opacity:1"
   id="path5736" /><text
   y="-7.6385641"
   x="65.292999"
   id="text921"
   style="font-style:normal;font-variant:normal;font-weight:normal;font-stretch:normal;font-size:9.96259975px;font-family:'Times New Roman';-inkscape-font-specification:'Times New Roman, ';writing-mode:lr-tb;fill:#000000;fill-opacity:1;fill-rule:nonzero;stroke:none"
   transform="scale(1,-1)"><tspan
     id="tspan919"
     sodipodi:role="line"
     y="-7.6385641"
     x="65.292999 72.346519 81.482224">BMI</tspan></text>
<text
   y="-7.3095641"
   x="136.131"
   id="text941"
   style="font-style:normal;font-variant:normal;font-weight:normal;font-stretch:normal;font-size:9.96259975px;font-family:'Times New Roman';-inkscape-font-specification:'Times New Roman, ';writing-mode:lr-tb;fill:#000000;fill-opacity:1;fill-rule:nonzero;stroke:none"
   transform="scale(1,-1)"><tspan
     id="tspan939"
     sodipodi:role="line"
     y="-7.3095641"
     x="136.131 143.60295 148.58424">Age</tspan></text>
<text
   y="-7.528564"
   x="181.48775"
   id="text961"
   style="font-style:normal;font-variant:normal;font-weight:normal;font-stretch:normal;font-size:9.96259975px;font-family:'Times New Roman';-inkscape-font-specification:'Times New Roman, ';writing-mode:lr-tb;fill:#000000;fill-opacity:1;fill-rule:nonzero;stroke:none"
   transform="scale(1,-1)"><tspan
     id="tspan959"
     sodipodi:role="line"
     y="-7.528564"
     x="181.48775 188.27228 192.14774 197.68694 203.22615 205.99574 210.41914 213.18874 216.7952">Ethnicity</tspan></text>
<text
   y="-49.243"
   x="38.931999"
   id="text981"
   style="font-style:normal;font-variant:normal;font-weight:normal;font-stretch:normal;font-size:9.96259975px;font-family:'Times New Roman';-inkscape-font-specification:'Times New Roman, ';writing-mode:lr-tb;fill:#000000;fill-opacity:1;fill-rule:nonzero;stroke:none"
   transform="scale(1,-1)"><tspan
     style="font-style:normal;font-variant:normal;font-weight:normal;font-stretch:normal;font-family:'Times New Roman';-inkscape-font-specification:'Times New Roman, '"
     id="tspan979"
     y="-49.243"
     x="38.931999">0</tspan></text>
<text
   y="-91.317001"
   x="33.950001"
   id="text1001"
   style="font-style:normal;font-variant:normal;font-weight:normal;font-stretch:normal;font-size:9.96259975px;font-family:'Times New Roman';-inkscape-font-specification:'Times New Roman, ';writing-mode:lr-tb;fill:#000000;fill-opacity:1;fill-rule:nonzero;stroke:none"
   transform="scale(1,-1)"><tspan
     id="tspan999"
     sodipodi:role="line"
     y="-91.317001"
     x="33.950001 38.931301">50</tspan></text>
<text
   y="-133.39101"
   x="28.969"
   id="text1021"
   style="font-style:normal;font-variant:normal;font-weight:normal;font-stretch:normal;font-size:9.96259975px;font-family:'Times New Roman';-inkscape-font-specification:'Times New Roman, ';writing-mode:lr-tb;fill:#000000;fill-opacity:1;fill-rule:nonzero;stroke:none"
   transform="scale(1,-1)"><tspan
     id="tspan1019"
     sodipodi:role="line"
     y="-133.39101"
     x="28.969 33.950298 38.931599">100</tspan></text>
<text
   y="-175.465"
   x="28.969"
   id="text1041"
   style="font-style:normal;font-variant:normal;font-weight:normal;font-stretch:normal;font-size:9.96259975px;font-family:'Times New Roman';-inkscape-font-specification:'Times New Roman, ';writing-mode:lr-tb;fill:#000000;fill-opacity:1;fill-rule:nonzero;stroke:none"
   transform="scale(1,-1)"><tspan
     id="tspan1039"
     sodipodi:role="line"
     y="-175.465"
     x="28.969 33.950298 38.931599">150</tspan></text>
<text
   y="60.594597"
   x="57.714943"
   id="text1085"
   style="font-style:normal;font-variant:normal;font-weight:normal;font-stretch:normal;font-size:9.96259975px;font-family:'Times New Roman';-inkscape-font-specification:'Times New Roman, ';writing-mode:lr-tb;fill:#0e8c00;fill-opacity:1;fill-rule:nonzero;stroke:none"
   transform="matrix(0,1,1,0,0,0)"><tspan
     style="font-style:normal;font-variant:normal;font-weight:normal;font-stretch:normal;font-family:'Times New Roman';-inkscape-font-specification:'Times New Roman, ';fill:#0e8c00;fill-opacity:1"
     id="tspan1083"
     y="60.594597"
     x="57.714943">1/115</tspan></text>
<text
   y="129.79095"
   x="93.983368"
   id="text1105"
   style="font-style:normal;font-variant:normal;font-weight:normal;font-stretch:normal;font-size:9.96259975px;font-family:'Times New Roman';-inkscape-font-specification:'Times New Roman, ';writing-mode:lr-tb;fill:#0e8c00;fill-opacity:1;fill-rule:nonzero;stroke:none"
   transform="matrix(0,1,1,0,0,0)"><tspan
     id="tspan1103"
     sodipodi:role="line"
     y="129.79095"
     x="93.983368 98.964668">47/669</tspan></text>
<text
   y="199.62457"
   x="167.6362"
   id="text1125"
   style="font-style:normal;font-variant:normal;font-weight:normal;font-stretch:normal;font-size:9.96259975px;font-family:'Times New Roman';-inkscape-font-specification:'Times New Roman, ';writing-mode:lr-tb;fill:#0e8c00;fill-opacity:1;fill-rule:nonzero;stroke:none"
   transform="matrix(0,1,1,0,0,0)"><tspan
     id="tspan1123"
     sodipodi:role="line"
     y="199.62457"
     x="167.6362 172.61749 177.5988">138/998</tspan></text>
<text
   y="72.401878"
   x="119.05225"
   id="text1147"
   style="font-style:normal;font-variant:normal;font-weight:normal;font-stretch:normal;font-size:9.96259975px;font-family:'Times New Roman';-inkscape-font-specification:'Times New Roman, ';writing-mode:lr-tb;fill:#ff0400;fill-opacity:1;fill-rule:nonzero;stroke:none;stroke-opacity:1"
   transform="matrix(0,1,1,0,0,0)"><tspan
     id="tspan1145"
     sodipodi:role="line"
     y="72.401878"
     x="119.05225 124.03355">77/904</tspan></text>
<text
   y="141.74596"
   x="93.983368"
   id="text1167"
   style="font-style:normal;font-variant:normal;font-weight:normal;font-stretch:normal;font-size:9.96259975px;font-family:'Times New Roman';-inkscape-font-specification:'Times New Roman, ';writing-mode:lr-tb;fill:#ff0400;fill-opacity:1;fill-rule:nonzero;stroke:none;stroke-opacity:1"
   transform="matrix(0,1,1,0,0,0)"><tspan
     id="tspan1165"
     sodipodi:role="line"
     y="141.74596"
     x="93.983368 98.964668">47/404</tspan></text>
<text
   y="211.07159"
   x="82.280205"
   id="text1187"
   style="font-style:normal;font-variant:normal;font-weight:normal;font-stretch:normal;font-size:9.96259975px;font-family:'Times New Roman';-inkscape-font-specification:'Times New Roman, ';writing-mode:lr-tb;fill:#ff0400;fill-opacity:1;fill-rule:nonzero;stroke:none;stroke-opacity:1"
   transform="matrix(0,1,1,0,0,0)"><tspan
     id="tspan1185"
     sodipodi:role="line"
     y="211.07159"
     x="82.280205 87.261505">33/498</tspan></text>
<text
   y="84.512543"
   x="108.11324"
   id="text1209"
   style="font-style:normal;font-variant:normal;font-weight:normal;font-stretch:normal;font-size:9.96259975px;font-family:'Times New Roman';-inkscape-font-specification:'Times New Roman, ';writing-mode:lr-tb;fill:#734c26;fill-opacity:1;fill-rule:nonzero;stroke:none"
   transform="matrix(0,1,1,0,0,0)"><tspan
     id="tspan1207"
     sodipodi:role="line"
     y="84.512543"
     x="108.11324 113.09454">64/282</tspan></text>
<text
   y="153.48549"
   x="97.585297"
   id="text1229"
   style="font-style:normal;font-variant:normal;font-weight:normal;font-stretch:normal;font-size:9.96259975px;font-family:'Times New Roman';-inkscape-font-specification:'Times New Roman, ';writing-mode:lr-tb;fill:#734c26;fill-opacity:1;fill-rule:nonzero;stroke:none"
   transform="matrix(0,1,1,0,0,0)"><tspan
     id="tspan1227"
     sodipodi:role="line"
     y="153.48549"
     x="97.585297 102.5666">51/289</tspan></text>
<text
   y="96.461243"
   x="63.639294"
   id="text1251"
   style="font-style:normal;font-variant:normal;font-weight:normal;font-stretch:normal;font-size:9.96259975px;font-family:'Times New Roman';-inkscape-font-specification:'Times New Roman, ';writing-mode:lr-tb;fill:#000000;fill-opacity:1;fill-rule:nonzero;stroke:none"
   transform="matrix(0,1,1,0,0,0)"><tspan
     id="tspan1249"
     sodipodi:role="line"
     y="96.461243"
     x="63.639294 68.62059">11/35</tspan></text>
<text
   y="165.36752"
   x="72.530022"
   id="text1271"
   style="font-style:normal;font-variant:normal;font-weight:normal;font-stretch:normal;font-size:9.96259975px;font-family:'Times New Roman';-inkscape-font-specification:'Times New Roman, ';writing-mode:lr-tb;fill:#000000;fill-opacity:1;fill-rule:nonzero;stroke:none"
   transform="matrix(0,1,1,0,0,0)"><tspan
     id="tspan1269"
     sodipodi:role="line"
     y="165.36752"
     x="72.530022 77.511314">21/104</tspan></text>
<text
   transform="matrix(0,1,1,0,0,0)"
   style="font-style:normal;font-variant:normal;font-weight:normal;font-stretch:normal;font-size:9.96259975px;font-family:'Times New Roman';-inkscape-font-specification:'Times New Roman, ';writing-mode:lr-tb;fill:#000000;fill-opacity:1;fill-rule:nonzero;stroke:none"
   id="text1291"
   x="80.863998"
   y="25.659979"><tspan
     sodipodi:role="line"
     id="tspan1289"
     x="80.863998"
     y="25.659979">Number of subjects</tspan></text>
<text
   y="60.594597"
   x="35.127644"
   transform="matrix(0,1,1,0,0,0)"
   style="font-style:normal;font-variant:normal;font-weight:normal;font-stretch:normal;font-size:9.96259975px;font-family:'Times New Roman';-inkscape-font-specification:'Times New Roman, ';writing-mode:lr-tb;fill:#0e8c00;fill-opacity:1;fill-rule:nonzero;stroke:none"
   id="text4421"><tspan
     x="35.127644"
     y="60.594597"
     id="tspan4419"
     style="font-style:normal;font-variant:normal;font-weight:normal;font-stretch:normal;font-family:'Times New Roman';-inkscape-font-specification:'Times New Roman, ';fill:#0e8c00;fill-opacity:1">&lt;21</tspan></text>
<text
   y="72.401878"
   x="26.600088"
   transform="matrix(0,1,1,0,0,0)"
   style="font-style:normal;font-variant:normal;font-weight:normal;font-stretch:normal;font-size:9.96259975px;font-family:'Times New Roman';-inkscape-font-specification:'Times New Roman, ';writing-mode:lr-tb;fill:#ff0400;fill-opacity:1;fill-rule:nonzero;stroke:none;stroke-opacity:1"
   id="text4427"><tspan
     y="72.401878"
     x="26.600088"
     sodipodi:role="line"
     id="tspan4425">22-30</tspan></text>
<text
   y="84.512543"
   x="26.600086"
   transform="matrix(0,1,1,0,0,0)"
   style="font-style:normal;font-variant:normal;font-weight:normal;font-stretch:normal;font-size:9.96259975px;font-family:'Times New Roman';-inkscape-font-specification:'Times New Roman, ';writing-mode:lr-tb;fill:#734c26;fill-opacity:1;fill-rule:nonzero;stroke:none"
   id="text4433"><tspan
     x="26.600086"
     y="84.512543"
     sodipodi:role="line"
     id="tspan4431">31-40</tspan></text>
<text
   y="96.461243"
   x="35.127644"
   transform="matrix(0,1,1,0,0,0)"
   style="font-style:normal;font-variant:normal;font-weight:normal;font-stretch:normal;font-size:9.96259975px;font-family:'Times New Roman';-inkscape-font-specification:'Times New Roman, ';writing-mode:lr-tb;fill:#000000;fill-opacity:1;fill-rule:nonzero;stroke:none"
   id="text4439"><tspan
     y="96.461243"
     x="35.127644"
     sodipodi:role="line"
     id="tspan4437">&gt;41</tspan></text>
<text
   id="text4445"
   style="font-style:normal;font-variant:normal;font-weight:normal;font-stretch:normal;font-size:9.96259975px;font-family:'Times New Roman';-inkscape-font-specification:'Times New Roman, ';writing-mode:lr-tb;fill:#0e8c00;fill-opacity:1;fill-rule:nonzero;stroke:none"
   transform="matrix(0,1,1,0,0,0)"
   x="34.266617"
   y="129.5453"><tspan
     style="font-style:normal;font-variant:normal;font-weight:normal;font-stretch:normal;font-family:'Times New Roman';-inkscape-font-specification:'Times New Roman, ';fill:#0e8c00;fill-opacity:1"
     id="tspan4443"
     y="129.5453"
     x="34.266617">&lt;40</tspan></text>
<text
   id="text4451"
   style="font-style:normal;font-variant:normal;font-weight:normal;font-stretch:normal;font-size:9.96259975px;font-family:'Times New Roman';-inkscape-font-specification:'Times New Roman, ';writing-mode:lr-tb;fill:#ff0400;fill-opacity:1;fill-rule:nonzero;stroke:none;stroke-opacity:1"
   transform="matrix(0,1,1,0,0,0)"
   x="26.600088"
   y="141.35258"><tspan
     id="tspan4449"
     sodipodi:role="line"
     x="26.600088"
     y="141.35258">41-50</tspan></text>
<text
   y="153.46326"
   x="26.600086"
   id="text4457"
   style="font-style:normal;font-variant:normal;font-weight:normal;font-stretch:normal;font-size:9.96259975px;font-family:'Times New Roman';-inkscape-font-specification:'Times New Roman, ';writing-mode:lr-tb;fill:#734c26;fill-opacity:1;fill-rule:nonzero;stroke:none"
   transform="matrix(0,1,1,0,0,0)"><tspan
     id="tspan4455"
     sodipodi:role="line"
     y="153.46326"
     x="26.600086">51-60</tspan></text>
<text
   y="165.41196"
   x="34.266617"
   id="text4463"
   style="font-style:normal;font-variant:normal;font-weight:normal;font-stretch:normal;font-size:9.96259975px;font-family:'Times New Roman';-inkscape-font-specification:'Times New Roman, ';writing-mode:lr-tb;fill:#000000;fill-opacity:1;fill-rule:nonzero;stroke:none"
   transform="matrix(0,1,1,0,0,0)"><tspan
     id="tspan4461"
     sodipodi:role="line"
     x="34.266617"
     y="165.41196">&gt;60</tspan></text>
<text
   y="199.38762"
   x="33.56126"
   transform="matrix(0,1,1,0,0,0)"
   style="font-style:normal;font-variant:normal;font-weight:normal;font-stretch:normal;font-size:9.96259975px;font-family:'Times New Roman';-inkscape-font-specification:'Times New Roman, ';writing-mode:lr-tb;fill:#0e8c00;fill-opacity:1;fill-rule:nonzero;stroke:none"
   id="text4469"><tspan
     x="33.56126"
     y="199.38762"
     id="tspan4467"
     style="font-style:normal;font-variant:normal;font-weight:normal;font-stretch:normal;font-family:'Times New Roman';-inkscape-font-specification:'Times New Roman, ';fill:#0e8c00;fill-opacity:1">MA</tspan></text>
<text
   y="211.1949"
   x="25.773113"
   transform="matrix(0,1,1,0,0,0)"
   style="font-style:normal;font-variant:normal;font-weight:normal;font-stretch:normal;font-size:9.96259975px;font-family:'Times New Roman';-inkscape-font-specification:'Times New Roman, ';writing-mode:lr-tb;fill:#ff0400;fill-opacity:1;fill-rule:nonzero;stroke:none;stroke-opacity:1"
   id="text4475"><tspan
     y="211.1949"
     x="25.773113"
     sodipodi:role="line"
     id="tspan4473">NHW</tspan></text>
</g></svg>